<?xml version="1.0" encoding="utf-8"?>
<!-- Generator: Adobe Illustrator 24.2.1, SVG Export Plug-In . SVG Version: 6.00 Build 0)  -->
<svg version="1.1" id="Laag_1" xmlns="http://www.w3.org/2000/svg" xmlns:xlink="http://www.w3.org/1999/xlink" x="0px" y="0px"
	 viewBox="0 0 258 59" style="enable-background:new 0 0 258 59;" xml:space="preserve">
<style type="text/css">
	.st0{fill:#FFFFFF;}
</style>
<g>
	<g>
		<path class="st0" d="M112.2,42.2l-0.6,0.7c-1,1.1-2.2,2.2-3.3,3.1c-1.1,0.9-2.5,1.7-3.8,2.3c-1.4,0.7-2.9,1.2-4.5,1.5
			c-1.5,0.3-3.4,0.5-5.3,0.5c-3.1,0-5.9-0.5-8.5-1.7c-2.6-1.1-4.8-2.6-6.7-4.6c-1.9-1.9-3.4-4.3-4.5-6.9c-1-2.6-1.5-5.5-1.5-8.5
			s0.5-5.8,1.5-8.4s2.6-4.9,4.4-7c1.9-2,4.3-3.5,6.9-4.7c2.6-1.1,5.5-1.7,8.7-1.7c1.9,0,3.7,0.2,5.2,0.5s3,0.8,4.4,1.4
			c1.3,0.6,2.6,1.3,3.7,2c1.1,0.9,2.1,1.7,3.1,2.6l0.7,0.6l-5.8,6.7l-0.7-0.7c-1.5-1.5-3.2-2.6-4.9-3.4c-1.7-0.9-3.6-1.3-5.7-1.3
			c-1.8,0-3.4,0.3-4.9,1c-1.5,0.7-2.8,1.6-3.9,2.8c-1.1,1.2-2,2.6-2.6,4.2c-0.6,1.6-0.9,3.4-0.9,5.3c0,1.9,0.3,3.7,0.9,5.3
			c0.6,1.6,1.5,3,2.6,4.3c1.1,1.2,2.4,2.1,3.9,2.8s3.2,1,4.9,1c2.2,0,4.2-0.4,5.8-1.3c1.7-0.9,3.4-2.1,5-3.7l0.7-0.6L112.2,42.2z"/>
		<path class="st0" d="M144.6,27c-0.9-2-2-3.8-3.6-5.3c-1.5-1.5-3.3-2.7-5.4-3.6c-2.1-0.9-4.4-1.4-6.8-1.4c-2.5,0-4.7,0.5-6.8,1.4
			c-2,0.9-3.8,2.1-5.4,3.7c-1.5,1.5-2.7,3.3-3.6,5.4c-0.9,2-1.3,4.3-1.3,6.6s0.4,4.4,1.3,6.5c0.9,2,2,3.8,3.6,5.3s3.3,2.7,5.4,3.6
			c2.1,0.9,4.4,1.3,6.7,1.3s4.7-0.4,6.8-1.4c2.1-0.9,3.9-2.1,5.5-3.6c1.5-1.5,2.7-3.3,3.6-5.3c0.9-2,1.3-4.3,1.3-6.6
			C145.9,31.3,145.5,29.1,144.6,27z M136.4,37.1c-0.3,1-0.9,2-1.6,2.7c-0.7,0.8-1.5,1.4-2.6,1.9s-2.1,0.7-3.4,0.7
			c-1.2,0-2.3-0.2-3.2-0.7c-1-0.5-1.9-1.1-2.6-1.9c-0.7-0.9-1.3-1.7-1.7-2.8s-0.6-2.2-0.6-3.5c0-1.2,0.2-2.3,0.6-3.4
			c0.3-1,0.9-2,1.6-2.7c0.7-0.8,1.5-1.5,2.6-1.9c1-0.5,2.1-0.7,3.3-0.7s2.3,0.3,3.3,0.7c1,0.4,1.9,1.1,2.6,1.9
			c0.7,0.9,1.3,1.8,1.7,2.9c0.4,1,0.6,2.2,0.6,3.4C137,34.9,136.8,36,136.4,37.1z"/>
		<g>
			<rect x="148.6" y="6.3" class="st0" width="9.4" height="8.5"/>
			<rect x="149" y="17.4" class="st0" width="9" height="32.2"/>
		</g>
		<path class="st0" d="M191.5,29.4v20.2h-9V31.5c0-2.1-0.5-3.8-1.5-4.8c-0.9-1.1-2.2-1.6-4-1.6s-3.1,0.6-4.2,1.7
			c-1,1.1-1.5,2.7-1.5,4.9v18h-9V17.4h9v3c0.6-0.7,1.4-1.4,2.2-1.9c0.9-0.5,1.8-0.9,2.8-1.3c1-0.3,2.1-0.5,3.4-0.5
			c3.7,0,6.6,1.2,8.6,3.5C190.4,22.6,191.5,25.6,191.5,29.4z"/>
		<g>
			<rect x="195.6" y="6.3" class="st0" width="9.5" height="8.5"/>
			<rect x="195.9" y="17.4" class="st0" width="9" height="32.2"/>
		</g>
		<path class="st0" d="M258,17.7l-12.5,32.2c-0.7,1.6-1.4,3-2,4.1c-0.7,1.1-1.5,2.1-2.4,2.9c-0.9,0.7-1.9,1.3-2.9,1.6
			S236,59,234.6,59c-1.5,0-2.9-0.2-4.1-0.6c-1.3-0.3-2.4-0.9-3.5-1.5l-0.9-0.3l3.2-7l0.9,0.5c0.6,0.3,1.2,0.6,1.8,0.8
			c0.6,0.2,1.1,0.3,1.8,0.3c0.9,0,1.5-0.2,1.9-0.5c0.3-0.3,0.9-0.9,1.4-2l-9.8-23.3h-7.5v24.3h-8.9V25.3h-3.8v-7.7h3.8v-1.3
			c0-3.6,0.9-6.3,2.6-8.1c1.8-1.8,4.4-2.7,7.6-2.7c1.3,0,2.4,0.1,3.3,0.3s1.8,0.3,2.6,0.6l0.7,0.3v7.9l-1.3-0.4
			c-0.7-0.3-1.3-0.3-1.9-0.5c-0.6-0.1-1.2-0.2-1.9-0.2c-1.5,0-3.1,0.4-3.1,3.7v0.7h13.9l7.9,20.4l7.3-20.4
			C248.6,17.7,258,17.7,258,17.7z"/>
	</g>
	<path class="st0" d="M56.4,18c-1.1-2.5-2.6-4.9-4.3-7C41.8-1.5,23.3-3.4,10.8,6.9S-3.6,35.6,6.6,48.1c1.5,1.8,3.1,3.4,4.9,4.8
		c2.1,1.6,4.4,3,6.9,4c3.5,1.4,7.2,2.2,11,2.2c16.2,0,29.3-13.2,29.3-29.4C58.8,25.7,58,21.7,56.4,18z M29.4,6.2
		c3.4,0,6.7,0.7,9.8,2.2l0,0c-0.7,0.3-1.5,0.5-2.3,0.7c-5.4,0.8-9.7,5.1-10.5,10.5c-0.3,3.1-2.8,5.5-5.9,5.7
		c-5.4,0.8-9.7,5.1-10.5,10.5c-0.1,1.4-0.7,2.7-1.7,3.8l0,0C2.8,27.9,7.8,14,19.4,8.5C22.6,7,26,6.2,29.4,6.2L29.4,6.2z M11.5,44.8
		c0.3-0.2,0.5-0.5,0.8-0.7c1.9-1.9,3.2-4.3,3.5-7c0.1-1.5,0.8-2.9,1.9-3.9c1-1.1,2.4-1.7,3.9-1.9c5.4-0.8,9.7-5.1,10.5-10.5
		c0.1-1.6,0.8-3,1.9-4.1c1.1-1.1,2.5-1.7,4-1.8c2.4-0.3,4.7-1.4,6.5-3.1c2,1.7,3.8,3.7,5.1,6c-0.1,0.1-0.2,0.2-0.3,0.3
		c-1,1.1-2.4,1.8-3.9,1.9c-5.5,0.8-9.7,5.1-10.5,10.5c-0.3,3.1-2.8,5.5-5.8,5.8c-5.5,0.8-9.8,5.1-10.6,10.5c-0.1,1.1-0.5,2.1-1.1,3
		C15.2,48.5,13.2,46.8,11.5,44.8z M29.4,53.2c-2.2,0-4.4-0.3-6.5-0.9c0.7-1.3,1.2-2.8,1.4-4.3c0.3-3.1,2.7-5.5,5.8-5.8
		c5.5-0.8,9.7-5.1,10.5-10.5c0.3-3.1,2.7-5.5,5.8-5.8c2-0.3,3.9-1,5.5-2.2c3.3,12.5-4.2,25.3-16.7,28.7c-1.9,0.5-3.9,0.8-5.9,0.8
		V53.2z"/>
</g>
</svg>
