<svg id="Laag_1" data-name="Laag 1" xmlns="http://www.w3.org/2000/svg" viewBox="0 0 505.79005 74.6962"><defs><style>.cls-1{fill:#fff;}</style></defs><title>fictive companies for templates v2</title><path class="cls-1" d="M70.7603-.34667A37.198,37.198,0,0,0,54.1408,3.5524,37.51465,37.51465,0,1,0,37.52144,74.6962,37.19587,37.19587,0,0,0,54.1408,70.797,37.51462,37.51462,0,1,0,70.7603-.34667ZM54.1408,13.43883a28.97358,28.97358,0,0,1,0,47.47186,28.97375,28.97375,0,0,1,0-47.47186ZM37.52144,66.17344a28.99868,28.99868,0,1,1,0-57.99735,28.43621,28.43621,0,0,1,8.11793,1.17185,37.4649,37.4649,0,0,0,0,55.65364A28.43586,28.43586,0,0,1,37.52144,66.17344Zm33.23886,0a28.43581,28.43581,0,0,1-8.11793-1.17186,37.4649,37.4649,0,0,0,0-55.65364A28.43615,28.43615,0,0,1,70.7603,8.17609a28.99868,28.99868,0,0,1,0,57.99735Z"/><path class="cls-1" d="M141.50618,60.88427a15.85933,15.85933,0,0,1-8.51023-2.33182,16.14388,16.14388,0,0,1-5.96883-6.67448,21.91046,21.91046,0,0,1-2.19123-9.99316,21.20967,21.20967,0,0,1,2.15409-9.5687,17.71105,17.71105,0,0,1,6.11208-6.99282,15.61222,15.61222,0,0,1,8.89754-2.65016,14.6791,14.6791,0,0,1,6.46226,1.41395,11.88444,11.88444,0,0,1,4.69548,3.95534V2.54622h9.82072v57.208h-9.39627l-.14325-4.592a11.67918,11.67918,0,0,1-4.87057,4.27368A16.23476,16.23476,0,0,1,141.50618,60.88427Zm2.68465-8.75694a8.93452,8.93452,0,0,0,6.84957-2.89687,10.58169,10.58169,0,0,0,2.68464-7.48625,10.56393,10.56393,0,0,0-2.65281-7.41727,9.63415,9.63415,0,0,0-13.76811,0,10.56393,10.56393,0,0,0-2.65281,7.41727,10.58169,10.58169,0,0,0,2.68464,7.48625A8.93012,8.93012,0,0,0,144.19083,52.12733Z"/><path class="cls-1" d="M184.51892,60.88427a15.85933,15.85933,0,0,1-8.51023-2.33182,16.14381,16.14381,0,0,1-5.96883-6.67448,21.91046,21.91046,0,0,1-2.19123-9.99316,21.20967,21.20967,0,0,1,2.15409-9.5687,17.71105,17.71105,0,0,1,6.11208-6.99282,15.61222,15.61222,0,0,1,8.89754-2.65016,14.56545,14.56545,0,0,1,6.67448,1.52006,11.95577,11.95577,0,0,1,4.76446,4.27368l.14325-4.66364h9.39627V59.75417h-9.39627l-.14325-4.592a11.67918,11.67918,0,0,1-4.87057,4.27368A16.23476,16.23476,0,0,1,184.51892,60.88427Zm2.68465-8.75694a8.93452,8.93452,0,0,0,6.84957-2.89687,10.58169,10.58169,0,0,0,2.68464-7.48625,10.56393,10.56393,0,0,0-2.65281-7.41727,9.63415,9.63415,0,0,0-13.76811,0,10.56393,10.56393,0,0,0-2.65281,7.41727,10.58169,10.58169,0,0,0,2.68464,7.48625A8.93012,8.93012,0,0,0,187.20357,52.12733Z"/><path class="cls-1" d="M216.236,31.92615h-6.99282V23.80323H216.236V14.05678h9.81542v9.74645h8.54737v8.12292h-8.54737v27.828H216.236Z"/><path class="cls-1" d="M251.90042,60.88427a15.8593,15.8593,0,0,1-8.51023-2.33182,16.1439,16.1439,0,0,1-5.96884-6.67448,21.91046,21.91046,0,0,1-2.19122-9.99316,21.20979,21.20979,0,0,1,2.15408-9.5687,17.71108,17.71108,0,0,1,6.11209-6.99282,15.6122,15.6122,0,0,1,8.89754-2.65016,14.56548,14.56548,0,0,1,6.67448,1.52006,11.95584,11.95584,0,0,1,4.76446,4.27368l.14325-4.66364h9.39627V59.75417H263.976l-.14325-4.592a11.6793,11.6793,0,0,1-4.87057,4.27368A16.23479,16.23479,0,0,1,251.90042,60.88427Zm2.68464-8.75694a8.93449,8.93449,0,0,0,6.84957-2.89687,10.58166,10.58166,0,0,0,2.68465-7.48625,10.56393,10.56393,0,0,0-2.65281-7.41727,9.63415,9.63415,0,0,0-13.76811,0,10.56389,10.56389,0,0,0-2.65282,7.41727,10.58166,10.58166,0,0,0,2.68465,7.48625A8.93009,8.93009,0,0,0,254.58506,52.12733Z"/><path class="cls-1" d="M280.29615,23.80323h9.46524l.069,4.45142a10.59939,10.59939,0,0,1,4.41429-4.16757,14.2972,14.2972,0,0,1,6.53653-1.41395q7.83907,0,11.01449,6.42777a11.19449,11.19449,0,0,1,4.62651-4.661,13.84945,13.84945,0,0,1,6.88671-1.76677q6.43041,0,9.81541,3.88637,3.3903,3.88372,3.3903,11.37V59.75417h-9.81542v-19.989q0-4.30551-1.55455-6.35614a5.64394,5.64394,0,0,0-4.80159-2.048,6.14184,6.14184,0,0,0-5.11993,2.40079,10.56211,10.56211,0,0,0-1.87289,6.64V59.75417H303.5348v-19.989q0-4.30551-1.51741-6.35614a5.63221,5.63221,0,0,0-4.83873-2.048,6.21461,6.21461,0,0,0-5.19421,2.40079,10.43472,10.43472,0,0,0-1.87289,6.56837V59.75417h-9.81541Z"/><path class="cls-1" d="M357.84853,60.88427a15.85935,15.85935,0,0,1-8.51023-2.33182,16.144,16.144,0,0,1-5.96883-6.67448,21.91046,21.91046,0,0,1-2.19122-9.99316,21.20979,21.20979,0,0,1,2.15408-9.5687,17.71108,17.71108,0,0,1,6.11209-6.99282,15.6122,15.6122,0,0,1,8.89754-2.65016,14.56548,14.56548,0,0,1,6.67448,1.52006,11.95584,11.95584,0,0,1,4.76446,4.27368l.14325-4.66364h9.39627V59.75417h-9.39627l-.14325-4.592a11.6793,11.6793,0,0,1-4.87057,4.27368A16.2348,16.2348,0,0,1,357.84853,60.88427Zm2.68465-8.75694a8.93449,8.93449,0,0,0,6.84957-2.89687,10.58166,10.58166,0,0,0,2.68465-7.48625,10.56389,10.56389,0,0,0-2.65282-7.41727,9.63414,9.63414,0,0,0-13.7681,0,10.56389,10.56389,0,0,0-2.65282,7.41727,10.58166,10.58166,0,0,0,2.68465,7.48625A8.93009,8.93009,0,0,0,360.53318,52.12733Z"/><path class="cls-1" d="M397.32773,60.88427a30.84757,30.84757,0,0,1-7.76745-.95236,15.39315,15.39315,0,0,1-5.65049-2.50956l1.19907-7.97967a22.55334,22.55334,0,0,0,11.79441,3.60252q6.00068,0,6.006-3.03747a2.78516,2.78516,0,0,0-1.27335-2.47242,21.68826,21.68826,0,0,0-5.295-1.97635q-6.3588-1.76677-9.07793-4.48591a9.86982,9.86982,0,0,1-2.71649-7.31116,9.66164,9.66164,0,0,1,3.88372-8.12026q3.88373-2.9685,10.66432-2.9685a29.06828,29.06828,0,0,1,6.63734.77727,19.1362,19.1362,0,0,1,5.43827,2.048l-1.1301,7.7701a20.08081,20.08081,0,0,0-5.051-2.01349,21.81933,21.81933,0,0,0-5.4701-.74013q-5.15708,0-5.15707,2.75362a2.83567,2.83567,0,0,0,1.23621,2.43794,18.26308,18.26308,0,0,0,4.90771,1.94186q6.78058,1.97768,9.57135,4.661a9.81752,9.81752,0,0,1,2.79076,7.41462,9.53764,9.53764,0,0,1-4.13308,8.19454Q404.6044,60.88295,397.32773,60.88427Z"/><path class="cls-1" d="M420.85289,31.92615h-6.99282V23.80323h6.99282V14.05678h9.81541v9.74645h8.54737v8.12292H430.6683v27.828h-9.81541Z"/><path class="cls-1" d="M460.75122,60.88427a25.06,25.06,0,0,1-10.98265-2.2602,16.84716,16.84716,0,0,1-7.30585-6.60285A19.389,19.389,0,0,1,439.847,41.81584a20.88008,20.88008,0,0,1,2.2602-9.78358,17.00321,17.00321,0,0,1,6.42512-6.84957,18.41835,18.41835,0,0,1,9.67747-2.50956,18.00456,18.00456,0,0,1,8.93468,2.15408,15.05673,15.05673,0,0,1,6.006,6.18106,19.97793,19.97793,0,0,1,2.15408,9.53422,23.55148,23.55148,0,0,1-.35547,4.2392H449.59348q1.8384,8.05,12.21887,8.05129a29.46379,29.46379,0,0,0,6.319-.67116A22.60275,22.60275,0,0,0,473.67574,50.22l.99215,7.69846a22.29724,22.29724,0,0,1-6.2182,2.18858A37.13764,37.13764,0,0,1,460.75122,60.88427Zm5.15707-22.95481a8.84356,8.84356,0,0,0-2.43528-5.7566,7.63956,7.63956,0,0,0-5.54438-2.01084,7.9237,7.9237,0,0,0-5.58153,2.01084,9.77093,9.77093,0,0,0-2.82259,5.7566Z"/><path class="cls-1" d="M480.67386,23.80323h9.46524l.069,5.93434a11.67309,11.67309,0,0,1,3.98983-4.87322,10.156,10.156,0,0,1,5.83089-1.69515,10.96943,10.96943,0,0,1,4.16492.77728l-.8489,9.25036a12.04227,12.04227,0,0,0-4.37715-.84624,7.426,7.426,0,0,0-6.25,2.89422q-2.22837,2.89688-2.22836,8.12292V59.75417h-9.81542Z"/></svg>