<svg id="Google_Play" data-name="Google Play" xmlns="http://www.w3.org/2000/svg" width="170" height="58" viewBox="0 0 170 58">
  <rect id="_Background" data-name="◼️ Background" width="170" height="58" rx="8" fill="#fff"/>
  <path id="Combined_Shape" data-name="Combined Shape" d="M133.876,34H131.3l2.452-5.58-4.381-9.971h2.579l3.091,7.037,3.093-7.037h2.579L133.876,34h0Zm-63.1-3.155,2.06-.862A2.969,2.969,0,0,0,75.58,31.89a2.68,2.68,0,0,0,2.815-2.957V27.879a3.548,3.548,0,0,1-2.938,1.3,5.063,5.063,0,0,1-3.472-1.473,5.37,5.37,0,0,1-1.622-3.892,5.521,5.521,0,0,1,1.491-3.739,4.993,4.993,0,0,1,3.653-1.616,3.779,3.779,0,0,1,2.888,1.231v-.907h2.25v9.629a5.861,5.861,0,0,1-1.451,4.211A4.88,4.88,0,0,1,75.6,34,5.184,5.184,0,0,1,70.776,30.845Zm1.944-7a2.943,2.943,0,1,0,5.857-.021,3.043,3.043,0,0,0-2.863-3.264A3.076,3.076,0,0,0,72.72,23.847ZM13.237,21.588l3.5,3.495L1.976,33.161a2.289,2.289,0,0,1-.321.15ZM.109,31.972C.1,30.77.006,11.706,0,10.276A1.4,1.4,0,0,1,.6,8.966L12.731,21.084.653,33.308A1.531,1.531,0,0,1,.109,31.972Zm31.7-5.382a8.159,8.159,0,0,1,.064-11.542,8.374,8.374,0,0,1,11.737-.27l-1.588,1.648a5.864,5.864,0,0,0-4.09-1.642,6.062,6.062,0,0,0-.006,12.124c2.321,0,5.132-1.19,5.415-4.541H37.912V20.1h7.649a7.081,7.081,0,0,1,.137,1.5,7.419,7.419,0,0,1-2.191,5.485,7.878,7.878,0,0,1-5.54,2.094A8.44,8.44,0,0,1,31.806,26.591Zm55.91,1.163a5.287,5.287,0,0,1-1.61-3.953,5.071,5.071,0,0,1,5-5.353,4.591,4.591,0,0,1,2.772.93,5.209,5.209,0,0,1,1.685,2.21l.373.875-7.186,2.981a2.738,2.738,0,0,0,2.627,1.624A2.977,2.977,0,0,0,94,25.594l1.852,1.231a5.4,5.4,0,0,1-4.489,2.353A5.279,5.279,0,0,1,87.716,27.754ZM89.1,21.54a2.719,2.719,0,0,0-.716,2.12l4.8-2.005A2.128,2.128,0,0,0,91.2,20.51,2.885,2.885,0,0,0,89.1,21.54ZM60.014,27.561a5.427,5.427,0,0,1-1.5-3.79A5.3,5.3,0,0,1,63.9,18.455a5.591,5.591,0,0,1,3.656,1.357,5.157,5.157,0,0,1,1.724,4.021,5.257,5.257,0,0,1-5.341,5.339A5.388,5.388,0,0,1,60.014,27.561Zm3.918-7h0a2.96,2.96,0,0,0-2.18.926,3.333,3.333,0,0,0-.877,2.313,3.043,3.043,0,1,0,6.071.015,3.066,3.066,0,0,0-3-3.257h0Zm-15.762,7a5.428,5.428,0,0,1-1.5-3.79,5.3,5.3,0,0,1,5.388-5.316,5.6,5.6,0,0,1,3.658,1.357,5.165,5.165,0,0,1,1.721,4.021,5.3,5.3,0,0,1-1.571,3.83,5.532,5.532,0,0,1-7.7-.1Zm3.918-7h-.005a2.965,2.965,0,0,0-2.178.926,3.341,3.341,0,0,0-.877,2.313,3.043,3.043,0,1,0,6.071.015,3.067,3.067,0,0,0-3.007-3.257Zm67.539,7.451a3.94,3.94,0,0,1-.807-3.045,3.8,3.8,0,0,1,3.618-3.226c.209-.021.428-.032.65-.032a11.757,11.757,0,0,1,2.965.452,2.647,2.647,0,0,0-2.814-2.259,3.094,3.094,0,0,0-2.74,1.534l-1.9-1.273a5.6,5.6,0,0,1,4.692-2.453,5.344,5.344,0,0,1,3.907,1.6,5.019,5.019,0,0,1,1.271,3.865V28.86h-2.36V27.584a4.025,4.025,0,0,1-2.051,1.378,5.754,5.754,0,0,1-1.492.2A3.936,3.936,0,0,1,119.627,28.014Zm1.649-2.638a1.575,1.575,0,0,0,1.622,1.611,2.3,2.3,0,0,0,.6-.084,3.544,3.544,0,0,0,2.612-2.61,10.12,10.12,0,0,0-1.964-.471,4.963,4.963,0,0,0-.728-.058C121.862,23.765,121.292,24.633,121.277,25.376Zm-4.828,3.484h-2.36v-15.8h2.361v15.8h0Zm-12.521,0H101.57v-15.8h2.36l3.354,0a5.032,5.032,0,0,1,0,10.064H103.93v5.731h0Zm.006-8.092h3.35a2.672,2.672,0,0,0,0-5.343h-3.35ZM84.8,28.86H82.439v-15.8H84.8v15.8h0ZM13.739,21.081l3.647-3.691,5.022,2.739c1.238.675.6,1.519,0,1.85L17.39,24.726ZM1.461,8.821a1.473,1.473,0,0,1,.515.161l14.758,8.052-3.5,3.542ZM29.924,3.784A3.855,3.855,0,0,1,33.747,0a3.714,3.714,0,0,1,2.622,1.033l-.723.75A2.719,2.719,0,0,0,31.056,3.8a2.709,2.709,0,0,0,2.726,2.75,2.279,2.279,0,0,0,2.464-2.067H33.777V3.453h3.481a.011.011,0,0,1,0,.008,3.338,3.338,0,0,1,.061.678A3.334,3.334,0,0,1,33.8,7.587,3.848,3.848,0,0,1,29.924,3.784ZM61.853,6.39A3.838,3.838,0,0,1,60.8,3.784a3.823,3.823,0,0,1,7.646,0A3.815,3.815,0,0,1,61.853,6.39ZM61.928,3.8a2.692,2.692,0,1,0,5.382,0,2.692,2.692,0,1,0-5.382,0ZM74.038,7.44,70.589,2.2V7.44H69.515V.252h1.074l3.448,5.233V.252h1.074V7.44Zm-17.771,0H55.194V1.326H53.432V.252h4.6V1.326H56.268V7.439h0Zm-9.727,0H45.467V1.326H43.7V.252h4.6V1.326H46.542V7.439h0Zm-3.968,0H38.453V.252h4.12V1.326H39.527V3.31h2.679V4.384H39.527V6.366h3.046V7.439h0Zm9.978,0H51.481V.249h1.07V7.438h0Z" transform="translate(15 12)" fill="#050505"/>
</svg>
