<svg id="Laag_1" data-name="Laag 1" xmlns="http://www.w3.org/2000/svg" viewBox="0 0 250.63291 74.6962"><defs><style>.cls-1{fill:#fff;}</style></defs><title>fictive companies for templates v2</title><path class="cls-1" d="M0,11.79506H9.58278V33.23943H34.75807V11.79506h9.57968V65.63819H34.75807V41.90882H9.58278V65.63819H0Z"/><path class="cls-1" d="M85.056,65.63819H76.38355V59.78325h-.15172c-1.67195,3.65044-5.09327,6.76832-11.17732,6.76832-9.8119,0-13.31062-6.92-13.31062-14.37571v-23.042h9.12764V47.61514c0,4.02817.30342,10.72218,6.69091,10.72218,6.00975,0,8.366-4.4121,8.366-9.27935V29.13385H85.056Z"/><path class="cls-1" d="M91.233,29.13385h8.67249v5.70322h.15171c1.59765-3.42131,5.09327-6.6166,11.17733-6.6166,5.62891,0,9.50847,2.2076,11.40954,6.76832,2.65965-4.63813,6.5392-6.76832,12.0164-6.76832,9.73449,0,13.1558,6.92,13.1558,15.66683V65.63819h-9.12763V44.9524c0-4.56382-1.36853-8.51768-6.76832-8.51768-5.70322,0-7.83342,4.71553-7.83342,9.43106V65.63819h-9.12453V43.8873c0-4.48641-1.82677-7.45258-6.23577-7.45258-6.00975,0-8.366,4.4121-8.366,9.27935V65.63819H91.233Z"/><path class="cls-1" d="M154.01177,8.14463h9.12763V33.772h.226c1.90417-2.35622,5.55151-5.55151,12.39723-5.55151,10.41875,0,17.64531,8.366,17.64531,19.16555s-6.76832,19.16555-18.02614,19.16555c-5.09327,0-9.88621-1.97848-12.54585-6.38748h-.15481v5.4741h-8.6694Zm19.54639,28.29009c-6.694,0-10.72218,5.24808-10.72218,10.9513s4.02817,10.9513,10.72218,10.9513c6.69091,0,10.72218-5.24808,10.72218-10.9513S180.24907,36.43472,173.55816,36.43472Z"/><path class="cls-1" d="M198.29689,8.14463h9.12763V65.63819h-9.12763Z"/><path class="cls-1" d="M223.08264,53.58828a9.45831,9.45831,0,0,0,12.18527,4.7907,11.992,11.992,0,0,0,7.52608-8.00126l7.83892,2.40885a19.01281,19.01281,0,0,1-12.00966,12.14058c-10.36359,3.772-21.28-.4294-25.20773-11.22069s1.73413-21.02672,12.09772-24.79876c9.57512-3.48506,18.523.86616,22.86687,12.80087l.85882,2.3596Zm15.24065-12.83221c-1.8931-4.97494-6.32556-6.92346-11.68484-4.97285-5.07414,1.84684-7.04914,6.20657-5.89719,11.37218Z"/></svg>