<svg xmlns="http://www.w3.org/2000/svg" width="101.074" height="24" viewBox="0 0 101.074 24">
  <path id="Path_187" data-name="Path 187" d="M120.446,23.042c3.482,0,5.521-1.741,5.521-4.352,0-3.159-2.885-3.706-5.347-4.178-1.791-.348-3.407-.647-3.407-1.965,0-1.02.945-1.666,2.537-1.666a3.069,3.069,0,0,1,3.283,2.313h2.562c-.5-2.86-2.736-4.551-5.845-4.551-2.86,0-5.2,1.318-5.2,4.054,0,2.984,2.711,3.532,5.123,4,1.865.373,3.581.746,3.581,2.213,0,1.219-1.169,1.865-2.81,1.865-2.089,0-3.308-.97-3.706-2.562H113.98C114.453,21.4,117.089,23.042,120.446,23.042Zm14.873-.274V20.455h-1.467c-1.293,0-1.393-.7-1.393-1.666V11.2h2.885V8.915h-2.885V3.792h-2.736V8.915h-2.139V11.2h2.139V19.51c0,2.462,1.194,3.258,3.258,3.258Zm6.491.274a5.9,5.9,0,0,0,3.233-.8,4.467,4.467,0,0,0,1.443-1.517v2.039h2.736V15.083c0-1.418,0-3.606-1.517-5.024a6.076,6.076,0,0,0-4.128-1.418c-2.711,0-5.273,1.517-5.745,4.576h2.711a2.937,2.937,0,0,1,3.009-2.338,3,3,0,0,1,2.189.821,3.176,3.176,0,0,1,.771,2.213l-4.526.87A8.014,8.014,0,0,0,138.776,16a3.557,3.557,0,0,0-1.492,3.009C137.284,21.55,139.124,23.042,141.81,23.042Zm.547-2.263c-1.393,0-2.338-.672-2.338-1.84a1.742,1.742,0,0,1,.522-1.268,4.093,4.093,0,0,1,2.089-.9l3.9-.771c0,2.064-.473,3.457-2.189,4.327A4.337,4.337,0,0,1,142.357,20.779Zm12.759,1.99V15.929a4.832,4.832,0,0,1,1.169-3.681,3.486,3.486,0,0,1,2.587-.92h.746V8.642h-.274a4.909,4.909,0,0,0-4.228,2.039V8.915H152.38V22.768Zm13.355,0V20.455H167c-1.293,0-1.393-.7-1.393-1.666V11.2H168.5V8.915h-2.885V3.792h-2.736V8.915h-2.139V11.2h2.139V19.51c0,2.462,1.194,3.258,3.258,3.258Zm6.441.274a5.682,5.682,0,0,0,3.159-.771,3.644,3.644,0,0,0,1.268-1.393v1.89H182.7V15.506c0-1.94,0-4.128-1.641-5.571a6.216,6.216,0,0,0-4.228-1.418c-2.761,0-5.472,1.492-5.969,4.75h3.333a2.571,2.571,0,0,1,2.611-2.114,2.483,2.483,0,0,1,1.865.672,2.918,2.918,0,0,1,.672,1.965l-4.153.771a8.662,8.662,0,0,0-3.258,1.194,3.64,3.64,0,0,0-1.592,3.183C170.336,21.6,172.276,23.042,174.913,23.042Zm.821-2.636c-1.169,0-2.039-.547-2.039-1.592a1.476,1.476,0,0,1,.448-1.094,3.636,3.636,0,0,1,1.94-.8l3.333-.672c-.05,1.84-.423,3.034-1.89,3.755A4.013,4.013,0,0,1,175.733,20.405ZM192.919,8.542a4.343,4.343,0,0,0-3.954,2.039V8.816h-3.357V27.792h3.357V21a4.316,4.316,0,0,0,3.954,2.064c3.656,0,6.143-2.984,6.143-7.262S196.575,8.542,192.919,8.542Zm-.771,2.885c2.139,0,3.532,1.84,3.532,4.377s-1.393,4.377-3.532,4.377-3.606-1.791-3.606-4.377S190.009,11.427,192.148,11.427Zm16.763-2.885a4.343,4.343,0,0,0-3.954,2.039V8.816H201.6V27.792h3.358V21a4.316,4.316,0,0,0,3.954,2.064c3.656,0,6.143-2.984,6.143-7.262S212.567,8.542,208.911,8.542Zm-.771,2.885c2.139,0,3.532,1.84,3.532,4.377s-1.393,4.377-3.532,4.377-3.606-1.791-3.606-4.377S206,11.427,208.14,11.427Z" transform="translate(-113.98 -3.792)" fill="#fff"/>
</svg>
