<svg id="Laag_1" data-name="Laag 1" xmlns="http://www.w3.org/2000/svg" viewBox="0 0 353.81556 74.6962"><defs><style>.cls-1{fill:#fff;}</style></defs><title>fictive companies for templates v2</title><path class="cls-1" d="M51.22928,20.02006q7.41381,0,11.85433,4.82594,4.44051,4.82917,4.44375,12.93611V64.341H56.405V38.55944a8.84065,8.84065,0,0,0-1.898-6.03728,6.75944,6.75944,0,0,0-5.35064-2.1571,7.307,7.307,0,0,0-5.90125,2.50042q-2.11824,2.5069-2.11824,7.24215V64.341H30.01458V38.55944a8.8406,8.8406,0,0,0-1.898-6.03728,6.73634,6.73634,0,0,0-5.34416-2.1571,7.4731,7.4731,0,0,0-5.90773,2.50042q-2.196,2.5069-2.196,7.24215V64.341H3.53993v-43.116H14.66874v4.5733q3.87694-5.7814,11.98388-5.77817,7.92879,0,11.72476,6.20571Q42.69158,20.01682,51.22928,20.02006Z"/><path class="cls-1" d="M109.43207,58.95147a23.16638,23.16638,0,0,1-32.37591,0A21.98922,21.98922,0,0,1,70.45531,42.783,22.52992,22.52992,0,0,1,93.22468,20.02006,22.59542,22.59542,0,0,1,116.07178,42.783,21.89883,21.89883,0,0,1,109.43207,58.95147ZM84.90074,51.32066a11.22017,11.22017,0,0,0,8.32394,3.362,11.35912,11.35912,0,0,0,8.3628-3.362,11.57418,11.57418,0,0,0,3.362-8.53771,11.57417,11.57417,0,0,0-3.362-8.5377,11.35909,11.35909,0,0,0-8.3628-3.362,11.22014,11.22014,0,0,0-8.32394,3.362,11.64158,11.64158,0,0,0-3.31662,8.5377A11.64159,11.64159,0,0,0,84.90074,51.32066Z"/><path class="cls-1" d="M167.298,20.02006q7.41381,0,11.85432,4.82594,4.44051,4.82917,4.44375,12.93611V64.341H172.47374V38.55944a8.84065,8.84065,0,0,0-1.898-6.03728,6.75944,6.75944,0,0,0-5.35064-2.1571,7.307,7.307,0,0,0-5.90125,2.50042q-2.11824,2.5069-2.11823,7.24215V64.341H146.0833V38.55944a8.8406,8.8406,0,0,0-1.898-6.03728,6.73634,6.73634,0,0,0-5.34416-2.1571,7.4731,7.4731,0,0,0-5.90773,2.50042q-2.196,2.5069-2.196,7.24215V64.341H119.60865v-43.116h11.12881v4.5733q3.87695-5.7814,11.98388-5.77817,7.92879,0,11.72477,6.20571Q158.7603,20.01682,167.298,20.02006Z"/><path class="cls-1" d="M198.16459,47.35626q2.24454,8.10369,12.15878,8.10369,6.38383,0,9.65836-4.31419l8.97171,5.17574q-6.38385,9.23082-18.79849,9.22434-10.698,0-17.15962-6.46481A22.09035,22.09035,0,0,1,186.524,42.783a22.30385,22.30385,0,0,1,6.38061-16.25273q6.38384-6.51017,16.38876-6.51016a20.56945,20.56945,0,0,1,15.6503,6.549A22.78239,22.78239,0,0,1,231.11054,42.783a26.34651,26.34651,0,0,1-.434,4.57331Zm-.16842-8.62839h21.98556a10.40749,10.40749,0,0,0-3.91906-6.549,11.25924,11.25924,0,0,0-6.76927-2.1571,11.69684,11.69684,0,0,0-7.417,2.28665A10.87688,10.87688,0,0,0,197.99617,38.72787Z"/><path class="cls-1" d="M258.531,20.02006a15.6126,15.6126,0,0,1,11.6859,4.74173q4.61541,4.74172,4.61217,13.10453V64.341H263.70669V39.24609q0-4.30448-2.332-6.59437a8.47578,8.47578,0,0,0-6.20571-2.28666,9.1579,9.1579,0,0,0-6.89882,2.67532q-2.58464,2.67209-2.58463,8.01948V64.341H234.55671v-43.116h11.12882v4.82594Q249.73738,20.01682,258.531,20.02006Z"/><path class="cls-1" d="M304.66564,31.91973h-9.74905V49.85668a4.26313,4.26313,0,0,0,1.12066,3.27127,5.12661,5.12661,0,0,0,3.27775,1.166,48.53313,48.53313,0,0,0,5.35064-.04534V64.341q-11.47537,1.29231-16.16852-2.1571-4.70286-3.44942-4.70286-12.3272V31.91973H276.293V21.22493h7.50126V12.51232l11.12233-3.362V21.22493h9.74905Z"/><path class="cls-1" d="M343.63592,58.95147A22.78916,22.78916,0,0,1,304.65916,42.783a22.80838,22.80838,0,1,1,45.61647,0A21.89883,21.89883,0,0,1,343.63592,58.95147ZM319.1046,51.32066a11.22014,11.22014,0,0,0,8.32393,3.362,11.35916,11.35916,0,0,0,8.36281-3.362,11.57417,11.57417,0,0,0,3.362-8.53771,11.57416,11.57416,0,0,0-3.362-8.5377,11.35913,11.35913,0,0,0-8.36281-3.362,11.22011,11.22011,0,0,0-8.32393,3.362A11.64154,11.64154,0,0,0,315.788,42.783,11.64155,11.64155,0,0,0,319.1046,51.32066Z"/></svg>