<?xml version="1.0" encoding="utf-8"?>
<!-- Generator: Adobe Illustrator 24.2.1, SVG Export Plug-In . SVG Version: 6.00 Build 0)  -->
<svg version="1.1" id="Laag_1" xmlns="http://www.w3.org/2000/svg" xmlns:xlink="http://www.w3.org/1999/xlink" x="0px" y="0px"
	 viewBox="0 0 275.8 59.2" style="enable-background:new 0 0 275.8 59.2;" xml:space="preserve">
<style type="text/css">
	.st0{fill:#FFFFFF;}
</style>
<g>
	<g>
		<path class="st0" d="M59.4,19.8C59.4,8.9,50.5,0,39.6,0C34,0,28.8,2.3,25,6.4H6c-3.3,0-6,2.7-6,6v40.8c0,3.3,2.7,6,6,6h40.8
			c3.3,0,6-2.7,6-6V34.5C57,30.8,59.4,25.4,59.4,19.8z M48.6,16.4c2.4,6.9-2.8,13.3-9.4,13c-5-0.2-9.1-4.3-9.3-9.3
			c-0.2-5.5,4.2-9.9,9.6-10l0,0C43.6,10.2,47.3,12.6,48.6,16.4z M42.6,49H10.2V16.6h9.9c-0.2,1.1-0.3,2.1-0.3,3.2
			c0,10.9,8.9,19.8,19.8,19.8c1,0,2.1-0.1,3.1-0.3V49z"/>
		<g>
			<path class="st0" d="M86.4,13.3l8.3,30h0.6v-30h6.9v36.5H90.1l-8.3-30h-0.6v30h-6.9V13.3H86.4z"/>
			<path class="st0" d="M110.2,11.9c2.6,0,4.6,1.8,4.6,4.5s-2,4.5-4.6,4.5c-2.6,0-4.6-1.8-4.6-4.5S107.6,11.9,110.2,11.9z
				 M113.5,49.7h-6.6V23.9h6.6V49.7z"/>
			<path class="st0" d="M121.9,23.9v-8h6.6v8h7.1v5.6h-7.1v13c0,1,0.5,1.6,1.5,1.6h4.2v5.6H127c-2.8,0-5.1-2.3-5.1-5.1V29.5h-6.6
				v-5.6H121.9z"/>
			<path class="st0" d="M145.1,27.7h0.7c1-2.9,3.2-3.9,6.5-3.9h2.5v5.9h-3.9c-3.3,0-5.7,1.8-5.7,5.4v14.6h-6.6V23.9h6.5V27.7z"/>
			<path class="st0" d="M168,23.2c7.6,0,13.5,5.5,13.5,13.6c0,8.1-5.9,13.6-13.5,13.6c-7.6,0-13.5-5.5-13.5-13.6
				C154.4,28.7,160.4,23.2,168,23.2z M168,44.6c4.2,0,7-3.1,7-7.8c0-4.7-2.8-7.8-7-7.8c-4.2,0-7,3.1-7,7.8
				C161,41.5,163.8,44.6,168,44.6z"/>
			<path class="st0" d="M194,23.2c5.3,0,9.1,2.3,12.6,6l-4.7,3.7c-2-2.3-4.6-4.4-8-4.4c-2.4,0-3.8,1-3.8,2.6c0,1.9,1.9,2.3,4.6,2.7
				l0.9,0.1c8.3,1,11.4,3.1,11.4,7.9c0,5.1-4.7,8.8-11.6,8.8c-7.1,0-11.1-3.6-13.5-7.3l5.2-3.3c1.6,3.4,5.1,5.2,8.4,5.2
				c2.7,0,5.1-1.1,5.1-3.2c0-1.9-2.7-2.3-5.5-2.6l-0.9-0.1c-7.2-0.8-10.5-3.2-10.5-8S188.1,23.2,194,23.2z"/>
			<path class="st0" d="M221.7,23.2c7.6,0,13.5,5.5,13.5,13.6c0,8.1-5.9,13.6-13.5,13.6s-13.5-5.5-13.5-13.6
				C208.1,28.7,214.1,23.2,221.7,23.2z M221.7,44.6c4.2,0,7-3.1,7-7.8c0-4.7-2.8-7.8-7-7.8s-7,3.1-7,7.8
				C214.7,41.5,217.5,44.6,221.7,44.6z"/>
			<path class="st0" d="M242.4,23.9v-5.4c0-2.9,2.3-5.2,5.2-5.2h6.8v5.6h-4c-0.9,0-1.5,0.5-1.5,1.6v3.4h6.8v5.6H249v20.2h-6.6V29.5
				h-6.6v-5.6H242.4z"/>
			<path class="st0" d="M262.2,23.9v-8h6.6v8h7.1v5.6h-7.1v13c0,1,0.5,1.6,1.5,1.6h4.2v5.6h-7.1c-2.8,0-5.1-2.3-5.1-5.1V29.5h-6.6
				v-5.6H262.2z"/>
		</g>
	</g>
</g>
</svg>
