<?xml version="1.0" encoding="utf-8"?>
<!-- Generator: Adobe Illustrator 25.0.0, SVG Export Plug-In . SVG Version: 6.00 Build 0)  -->
<svg version="1.1" id="Laag_1" xmlns="http://www.w3.org/2000/svg" xmlns:xlink="http://www.w3.org/1999/xlink" x="0px" y="0px"
	 width="1920px" height="960px" viewBox="0 0 1920 960" style="enable-background:new 0 0 1920 960;" xml:space="preserve">
<style type="text/css">
	.st0{fill:none;stroke:#FFFFFF;stroke-width:4;stroke-miterlimit:10;}
</style>
<g>
	<path class="st0" d="M1589.3,313.2c-7.9-8.1-17.7-14-28.2-18.3c-4.3-1.8-8.7-3.3-13.2-4.5c-25.3-7.2-55.2-12.9-81.6-9.9
		c-18.2,2.1-36.5,10.2-46.7,25.3c-6.9,10.3-9.6,22.9-16.4,33.2c-13.2,20-38.8,27.2-62.5,31.3c-25.9,4.5-50.8,8.8-71.9,25.6
		c-18.5,14.7-32.8,45.1-17.6,66.9c7.5,10.7,20.4,16.2,32.8,20.4c24.8,8.3,50.6,13.6,74.8,23.4c23.3,9.4,37.6,22.1,53.8,40.6
		c14.3,16.3,36.3,26.5,57.7,28.4c21.4,1.9,43-5.9,53.5-25.6c7.2-13.4,10.1-28.6,16.4-42.4c5.8-12.6,14.9-23.2,24-33.5
		c20.8-23.7,38.5-49.3,44.8-80.7C1614.9,365.3,1609.4,333.7,1589.3,313.2z"/>
	<path class="st0" d="M1667.8,235.1c-13-13.2-29-23-46.2-30.1c-7.1-2.9-14.3-5.4-21.6-7.4c-41.6-11.8-90.5-21.2-133.9-16.3
		c-29.8,3.4-59.9,16.7-76.6,41.6c-11.3,16.9-15.7,37.6-26.9,54.5c-21.7,32.8-63.7,44.7-102.6,51.4c-42.5,7.4-83.4,14.5-118.1,42
		c-30.4,24.1-53.9,74.1-28.8,109.9c12.3,17.6,33.4,26.7,53.8,33.5c40.7,13.7,83,22.3,122.9,38.4c38.2,15.5,61.7,36.3,88.3,66.6
		c23.5,26.7,59.5,43.4,94.7,46.6c35.1,3.1,70.6-9.7,87.9-42c11.8-22.1,16.7-46.9,27-69.6c9.5-20.7,24.4-38,39.3-55
		c34.1-38.8,63.2-81,73.6-132.5C1709.7,320.5,1700.8,268.6,1667.8,235.1z"/>
	<path class="st0" d="M1746.2,156.9c-18.1-18.4-40.4-32-64.3-41.9c-9.8-4.1-19.9-7.5-30.1-10.4c-57.9-16.4-125.9-29.5-186.2-22.7
		c-41.5,4.7-83.3,23.2-106.6,57.8c-15.7,23.4-21.8,52.3-37.4,75.8c-30.2,45.6-88.7,62.1-142.6,71.4c-59.1,10.2-116,20.1-164.2,58.3
		c-42.2,33.5-75,103.1-40.1,152.8c17.1,24.5,46.5,37.1,74.9,46.6c56.5,19,115.5,31,170.9,53.4c53.1,21.5,85.8,50.5,122.8,92.6
		c32.7,37.2,82.8,60.4,131.7,64.8c48.9,4.3,98.2-13.5,122.2-58.4c16.4-30.7,23.2-65.2,37.6-96.8c13.2-28.8,33.9-52.9,54.7-76.5
		c47.4-54,87.9-112.6,102.3-184.2C1804.5,275.7,1792.1,203.6,1746.2,156.9z"/>
	<path class="st0" d="M1658.6,0c15.4,3.6,30.5,7.6,45.1,11.8c13,3.7,25.9,8.1,38.5,13.3c30.7,12.7,59.2,30.1,82.4,53.7
		c58.8,59.8,74.8,152.2,58.2,234.2c-18.5,91.7-70.4,166.8-131.1,236c-26.6,30.3-53.2,61.1-70,98c-18.4,40.4-27.1,84.7-48.1,124
		c-30.8,57.5-93.9,80.3-156.6,74.8c-62.7-5.5-126.9-35.3-168.8-82.9c-47.4-54-89.2-91.1-157.3-118.7c-71-28.8-146.4-44.1-218.9-68.5
		c-36.3-12.2-73.9-28.4-95.9-59.7c-44.7-63.8-2.7-152.9,51.4-195.8c61.7-48.9,134.6-61.6,210.4-74.7c69.2-12,144-33.1,182.7-91.5
		c20-30.2,27.8-67.1,47.9-97.1c17.2-25.6,42.4-44.3,70.8-56.8"/>
	<path class="st0" d="M1902.5,0c0.2,0.2,0.3,0.3,0.5,0.5c6,6.1,11.7,12.5,17,19.2"/>
	<path class="st0" d="M1283.4,0c-14.9,30.5-24.8,63.8-43.6,92.2c-47.2,71.2-138.5,97-222.8,111.6c-92.3,16-181.2,31.5-256.5,91.1
		c-66,52.3-117.1,161-62.7,238.8c26.8,38.3,72.6,57.9,116.9,72.8c88.3,29.8,180.3,48.4,266.9,83.5c83,33.6,133.9,78.9,191.8,144.7
		c51,58.1,129.3,94.4,205.8,101.1c76.3,6.8,153.4-21.1,190.9-91.2c25.7-48,36.2-101.9,58.7-151.2c20.6-45.1,53-82.6,85.4-119.5
		c40-45.6,76.8-93.2,105.8-145"/>
	<path class="st0" d="M1676.8,960c11.4-12.2,21.5-26,29.9-41.7c30.3-56.6,42.7-120.3,69.2-178.4c24.3-53.2,62.5-97.4,100.8-141
		c14.9-17,29.4-34.1,43.3-51.7"/>
	<path class="st0" d="M1216,0c-5.1,10.5-10.7,20.7-17.1,30.5c-55.6,84-163.4,114.4-262.9,131.7c-109,18.9-213.8,37.1-302.7,107.5
		c-77.8,61.7-138.2,189.9-74,281.7c31.6,45.1,85.7,68.3,138,85.9c104.2,35.1,212.8,57.1,314.9,98.5c97.9,39.7,158,93.1,226.3,170.7
		c17.7,20.1,38.1,38,60.5,53.5"/>
	<path class="st0" d="M1758.5,960c24.5-56.6,38.8-117.4,64.4-173.6c23.9-52.4,59.6-97.3,97-140.6"/>
	<path class="st0" d="M1133.5,0c-68.2,73.6-177,103-278.4,120.6c-125.6,21.7-246.5,42.8-348.8,123.9
		C416.6,315.6,347,463.3,421,569.1c36.4,52,98.8,78.8,159,99.1C700.2,708.7,825.3,734,943,781.7c104.9,42.5,172.2,98.7,244.4,178.3"
		/>
	<path class="st0" d="M1823.3,960c14.6-42.8,28-86,46.8-127.2c13.7-30.1,30.9-57.9,49.9-84.5"/>
	<path class="st0" d="M1017.3,0C945.8,42.9,857.7,64.5,774.1,79c-142.2,24.6-279.1,48.4-395,140.3
		c-101.6,80.5-180.4,247.8-96.5,367.6c41.2,58.9,111.8,89.2,180,112.1c136,45.8,277.7,74.5,410.9,128.5
		c85.7,34.7,149.2,77.5,208.6,132.5"/>
	<path class="st0" d="M1885.7,960c9.4-27.3,19.5-54.4,31.5-80.7c0.9-2,1.9-4.1,2.8-6.1"/>
	<path class="st0" d="M850.3,0c-51.2,16.8-105,28.3-157.1,37.3C534.3,64.8,381.5,91.5,252.1,194C138.6,284,50.6,470.8,144.3,604.6
		c46.1,65.8,124.9,99.6,201.1,125.3c151.9,51.2,310.1,83.2,458.9,143.5c61.2,24.8,112.2,53.3,158.4,86.6"/>
	<path class="st0" d="M0,326.9c30.1-62.6,75.3-118.8,124.9-158.1C261.2,60.8,420.9,29.1,587.5,0"/>
	<path class="st0" d="M0,613.5c1.9,3,3.8,5.9,5.9,8.8c50.9,72.7,138,110,222.1,138.4c167.8,56.5,342.5,91.9,507,158.6
		c31.2,12.7,60.1,26.2,87.2,40.8"/>
	<path class="st0" d="M0,747.1c35.5,17.7,73.3,31.9,110.6,44.5C290,852,476.6,890.3,652.8,960"/>
	<path class="st0" d="M0,141.9C92.7,69,195.3,28.1,303.4,0"/>
	<path class="st0" d="M0,36.3C27.1,22.7,54.8,10.7,83,0"/>
	<path class="st0" d="M237.5,960C158.4,937.2,78.9,915.7,0,892.2"/>
	<path class="st0" d="M0,824.6C150.2,874.8,304.9,911,455.4,960"/>
</g>
</svg>
