<?xml version="1.0" encoding="utf-8"?>
<!-- Generator: Adobe Illustrator 24.2.1, SVG Export Plug-In . SVG Version: 6.00 Build 0)  -->
<svg version="1.1" id="Laag_1" xmlns="http://www.w3.org/2000/svg" xmlns:xlink="http://www.w3.org/1999/xlink" x="0px" y="0px"
	 viewBox="0 0 274.4 74.7" style="enable-background:new 0 0 274.4 74.7;" xml:space="preserve">
<style type="text/css">
	.st0{fill:#FFFFFF;}
</style>
<g>
	<g>
		<path class="st0" d="M34.3,10.8V3.9c0-2.2-1.8-4-4-4H4c-2.2,0-4,1.8-4,4v66.8c0,2.2,1.8,4,4,4h26.3c2.2,0,4-1.8,4-4v-6.9
			c-14.6,0-26.5-11.9-26.5-26.5S19.7,10.8,34.3,10.8z"/>
		<path class="st0" d="M34.3,10.8v53c14.6,0,26.5-11.9,26.5-26.5C60.8,22.7,49,10.8,34.3,10.8L34.3,10.8z"/>
	</g>
	<g>
		<g>
			<path class="st0" d="M97.6,47.3c0,2.7-1,4.8-2.9,6.4c-2,1.6-4.4,2.4-7.4,2.4c-2,0-4.1-0.4-6.3-1.1s-4.1-1.8-5.9-3.2l3.3-4.7
				c2.8,2.2,5.8,3.3,9,3.3c1,0,1.7-0.2,2.3-0.6c0.6-0.4,0.9-0.9,0.9-1.5s-0.4-1.2-1.2-1.8c-0.8-0.5-1.9-1-3.4-1.5
				c-1.5-0.5-2.6-0.9-3.4-1.2c-0.8-0.3-1.7-0.8-2.7-1.5c-2-1.3-3.1-3.2-3.1-5.6c0-2.5,1-4.5,3-6.1c2-1.6,4.6-2.4,7.8-2.4
				c3.2,0,6.4,1.1,9.5,3.2l-2.8,5c-2.3-1.6-4.7-2.4-7-2.4c-2.3,0-3.5,0.6-3.5,1.9c0,0.7,0.4,1.3,1.1,1.7c0.7,0.4,2,0.9,3.7,1.4
				c1.7,0.5,2.9,0.9,3.6,1.2s1.6,0.7,2.6,1.3C96.7,42.8,97.6,44.7,97.6,47.3z"/>
			<path class="st0" d="M124.2,51.8c-3,2.9-6.6,4.3-10.7,4.3s-7.5-1.3-10.2-3.8c-2.7-2.5-4-5.9-4-10.2c0-5.2,2-9.1,6.1-11.6
				c2.4-1.6,5.3-2.3,8.2-2.2c3.5,0.1,6.5,1.2,8.9,3.4c2.6,2.2,3.9,5.3,3.9,9.2v4h-19.7c0.2,1.5,1,2.7,2.3,3.6
				c1.3,0.9,2.8,1.4,4.4,1.4c2.6,0,4.8-0.9,6.5-2.7L124.2,51.8z M117,35.8c-1-0.9-2.3-1.3-3.8-1.3c-1.5,0-2.9,0.5-4.1,1.4
				c-1.2,0.9-2,2.1-2.2,3.7h11.8C118.6,37.9,118,36.7,117,35.8z"/>
			<path class="st0" d="M136.9,40.7v15.1h-7.5v-27h7.5v3c2.3-2.3,4.8-3.5,7.7-3.5c2.8,0,5.2,1,7.2,3c1.9,2,2.9,4.7,2.9,8v16.4h-7.5
				V40.5c0-4.1-1.5-6.2-4.6-6.2c-1.5,0-2.8,0.5-3.9,1.6C137.4,37,136.9,38.6,136.9,40.7z"/>
			<path class="st0" d="M169.7,56.1c-3.2,0-6-1.4-8.6-4.1c-2.5-2.7-3.8-6.1-3.8-10.1s1.2-7.3,3.7-9.9c2.4-2.6,5.3-3.8,8.6-3.8
				c3.3,0,6,1.2,8,3.5V18.5h7.5v37.2h-7.5v-3.6C175.6,54.8,172.9,56.1,169.7,56.1z M165,42.3c0,2.2,0.7,4,2,5.3
				c1.3,1.4,2.8,2.1,4.6,2.1s3.2-0.7,4.4-2.1c1.2-1.4,1.8-3.2,1.8-5.4c0-2.2-0.6-4-1.8-5.5c-1.2-1.5-2.7-2.2-4.5-2.2
				c-1.8,0-3.3,0.7-4.6,2.2C165.6,38.3,165,40.1,165,42.3z"/>
			<path class="st0" d="M205.4,28.3c3.3,0,6.1,1.3,8.6,3.8c2.4,2.6,3.7,5.8,3.7,9.9s-1.3,7.4-3.8,10.1c-2.5,2.7-5.4,4.1-8.6,4.1
				c-3.2,0-5.8-1.3-8-4v3.6h-7.5V18.5h7.5v13.2C199.4,29.4,202.1,28.3,205.4,28.3z M197.2,42.2c0,2.2,0.6,4,1.8,5.4
				c1.2,1.4,2.7,2.1,4.4,2.1s3.3-0.7,4.6-2.1c1.3-1.4,2-3.2,2-5.3s-0.6-4-1.9-5.5c-1.3-1.5-2.8-2.2-4.6-2.2c-1.8,0-3.3,0.7-4.5,2.2
				C197.8,38.2,197.2,40.1,197.2,42.2z"/>
			<path class="st0" d="M247.7,42.2c0,3.9-1.4,7.2-4.1,9.9s-6.1,4-10.2,4s-7.5-1.3-10.2-4c-2.7-2.7-4.1-6-4.1-9.9s1.4-7.2,4.1-9.9
				c2.7-2.7,6.1-4,10.2-4s7.5,1.3,10.2,4C246.3,35,247.7,38.3,247.7,42.2z M226.7,42.2c0,2.2,0.6,4,1.9,5.4c1.3,1.4,2.9,2.1,4.8,2.1
				c2,0,3.6-0.7,4.8-2.1c1.3-1.4,1.9-3.2,1.9-5.4c0-2.2-0.6-4-1.9-5.4c-1.3-1.4-2.9-2.1-4.8-2.1c-2,0-3.6,0.7-4.8,2.1
				C227.4,38.2,226.7,40,226.7,42.2z"/>
			<path class="st0" d="M256.2,28.7l4.6,7.2l4.8-7.2h8.8l-9.3,13.2l9.6,13.8h-9l-5.3-7.4l-5.1,7.4h-8.7l9.4-13.7l-8.9-13.2H256.2z"
				/>
		</g>
	</g>
</g>
</svg>
